<svg xmlns="http://www.w3.org/2000/svg" xmlns:xlink="http://www.w3.org/1999/xlink" width="500" zoomAndPan="magnify" viewBox="0 0 375 374.999991" height="500" preserveAspectRatio="xMidYMid meet" version="1.0"><defs><g/></defs><g fill="#000000" fill-opacity="1"><g transform="translate(62.981884, 203.993526)"><g><path d="M 14.84375 -23.96875 C 13.34375 -23.96875 12.269531 -23.144531 11.625 -21.5 C 10.976562 -19.863281 10.65625 -17.148438 10.65625 -13.359375 L 10.65625 -10.703125 C 10.65625 -7.316406 11.03125 -4.890625 11.78125 -3.421875 C 12.53125 -1.960938 13.910156 -1.234375 15.921875 -1.234375 C 17.929688 -1.234375 19.535156 -1.914062 20.734375 -3.28125 C 21.929688 -4.644531 22.703125 -6.195312 23.046875 -7.9375 L 23.96875 -7.828125 C 23.3125 -4.898438 22.113281 -2.785156 20.375 -1.484375 C 18.601562 -0.148438 16.164062 0.515625 13.0625 0.515625 C 9.101562 0.515625 6.0625 -0.550781 3.9375 -2.6875 C 1.820312 -4.820312 0.765625 -7.945312 0.765625 -12.0625 C 0.765625 -16.175781 1.96875 -19.34375 4.375 -21.5625 C 6.78125 -23.78125 10.132812 -24.890625 14.4375 -24.890625 C 17.476562 -24.890625 19.800781 -24.300781 21.40625 -23.125 C 23.007812 -21.945312 23.8125 -20.46875 23.8125 -18.6875 C 23.8125 -16.914062 23.425781 -15.617188 22.65625 -14.796875 C 21.882812 -13.972656 20.820312 -13.5625 19.46875 -13.5625 C 18.125 -13.5625 17.039062 -13.921875 16.21875 -14.640625 C 15.40625 -15.359375 15 -16.414062 15 -17.8125 C 15 -18.425781 15.085938 -19.039062 15.265625 -19.65625 L 16.953125 -19.65625 C 17.191406 -20.34375 17.3125 -20.957031 17.3125 -21.5 C 17.3125 -23.144531 16.488281 -23.96875 14.84375 -23.96875 Z M 14.84375 -23.96875 "/></g></g></g><g fill="#000000" fill-opacity="1"><g transform="translate(82.896988, 203.993526)"><g><path d="M 30.46875 0 L 18.796875 0 L 18.234375 -3.734375 C 17.679688 -2.367188 16.867188 -1.316406 15.796875 -0.578125 C 14.722656 0.148438 13.128906 0.515625 11.015625 0.515625 C 5.722656 0.515625 3.078125 -2.332031 3.078125 -8.03125 L 3.078125 -23.453125 L 0.203125 -23.453125 L 0.203125 -24.375 L 12.59375 -24.375 L 12.59375 -6.8125 C 12.59375 -4.757812 12.738281 -3.410156 13.03125 -2.765625 C 13.320312 -2.117188 13.898438 -1.796875 14.765625 -1.796875 C 15.640625 -1.796875 16.414062 -2.320312 17.09375 -3.375 C 17.78125 -4.4375 18.125 -5.90625 18.125 -7.78125 L 18.125 -23.453125 L 15.765625 -23.453125 L 15.765625 -24.375 L 27.65625 -24.375 L 27.65625 -0.921875 L 30.46875 -0.921875 Z M 30.46875 0 "/></g></g></g><g fill="#000000" fill-opacity="1"><g transform="translate(109.058403, 203.993526)"><g><path d="M 1.6875 0.515625 L 1.6875 -8.65625 L 2.296875 -8.65625 C 3.191406 -5.6875 4.390625 -3.601562 5.890625 -2.40625 C 7.390625 -1.207031 9.265625 -0.609375 11.515625 -0.609375 C 15.003906 -0.609375 16.75 -1.71875 16.75 -3.9375 C 16.75 -4.894531 16.320312 -5.613281 15.46875 -6.09375 C 14.132812 -6.84375 12.425781 -7.421875 10.34375 -7.828125 C 8.019531 -8.441406 6.070312 -9.265625 4.5 -10.296875 C 2.625 -11.523438 1.6875 -13.46875 1.6875 -16.125 C 1.6875 -18.789062 2.503906 -20.914062 4.140625 -22.5 C 5.785156 -24.09375 7.972656 -24.890625 10.703125 -24.890625 C 12.367188 -24.890625 14.09375 -24.492188 15.875 -23.703125 C 16.519531 -23.429688 17.015625 -23.296875 17.359375 -23.296875 C 17.703125 -23.296875 17.992188 -23.414062 18.234375 -23.65625 C 18.472656 -23.894531 18.757812 -24.335938 19.09375 -24.984375 L 19.65625 -24.984375 L 19.65625 -17.15625 L 19.046875 -17.15625 C 17.304688 -21.59375 14.609375 -23.8125 10.953125 -23.8125 C 9.347656 -23.8125 8.15625 -23.53125 7.375 -22.96875 C 6.59375 -22.40625 6.203125 -21.695312 6.203125 -20.84375 C 6.203125 -20.332031 6.316406 -19.929688 6.546875 -19.640625 C 6.785156 -19.347656 6.972656 -19.132812 7.109375 -19 C 7.253906 -18.863281 7.476562 -18.71875 7.78125 -18.5625 C 8.09375 -18.40625 8.347656 -18.285156 8.546875 -18.203125 C 8.753906 -18.117188 9.070312 -18.007812 9.5 -17.875 C 9.925781 -17.738281 10.242188 -17.648438 10.453125 -17.609375 C 12.765625 -17.035156 14.429688 -16.535156 15.453125 -16.109375 C 16.484375 -15.679688 17.457031 -15.160156 18.375 -14.546875 C 20.257812 -13.242188 21.203125 -11.148438 21.203125 -8.265625 C 21.203125 -5.378906 20.347656 -3.191406 18.640625 -1.703125 C 16.929688 -0.222656 14.59375 0.515625 11.625 0.515625 C 9.507812 0.515625 7.460938 0.0195312 5.484375 -0.96875 C 5.066406 -1.238281 4.738281 -1.375 4.5 -1.375 C 3.75 -1.375 3.015625 -0.742188 2.296875 0.515625 Z M 1.6875 0.515625 "/></g></g></g><g fill="#000000" fill-opacity="1"><g transform="translate(126.464745, 203.993526)"><g><path d="M 3.078125 -7.328125 L 3.078125 -23.453125 L 0.25 -23.453125 L 0.25 -24.375 L 3.078125 -24.375 L 3.078125 -30.984375 L 12.59375 -33.328125 L 12.59375 -24.375 L 19.25 -24.375 L 19.25 -23.453125 L 12.59375 -23.453125 L 12.59375 -6.203125 C 12.59375 -4.585938 12.753906 -3.40625 13.078125 -2.65625 C 13.398438 -1.90625 14.070312 -1.53125 15.09375 -1.53125 C 16.125 -1.53125 17.019531 -2.039062 17.78125 -3.0625 C 18.550781 -4.09375 19.054688 -5.492188 19.296875 -7.265625 L 20.171875 -7.171875 C 19.898438 -4.816406 19.148438 -2.945312 17.921875 -1.5625 C 16.691406 -0.175781 14.660156 0.515625 11.828125 0.515625 C 8.992188 0.515625 6.828125 -0.046875 5.328125 -1.171875 C 3.828125 -2.304688 3.078125 -4.359375 3.078125 -7.328125 Z M 3.078125 -7.328125 "/></g></g></g><g fill="#000000" fill-opacity="1"><g transform="translate(141.823122, 203.993526)"><g><path d="M 17.046875 -10.09375 L 17.046875 -14.4375 C 17.046875 -17.75 16.863281 -20.164062 16.5 -21.6875 C 16.144531 -23.207031 15.320312 -23.96875 14.03125 -23.96875 C 13.28125 -23.96875 12.671875 -23.753906 12.203125 -23.328125 C 11.742188 -22.898438 11.414062 -22.191406 11.21875 -21.203125 C 10.90625 -19.660156 10.75 -17.320312 10.75 -14.1875 L 10.75 -10.1875 C 10.75 -6.46875 10.859375 -4.234375 11.078125 -3.484375 C 11.304688 -2.734375 11.539062 -2.117188 11.78125 -1.640625 C 12.15625 -0.816406 12.890625 -0.40625 13.984375 -0.40625 C 15.304688 -0.40625 16.175781 -1.175781 16.59375 -2.71875 C 16.894531 -3.8125 17.046875 -6.269531 17.046875 -10.09375 Z M 13.875 0.515625 C 9.601562 0.515625 6.375 -0.578125 4.1875 -2.765625 C 2.007812 -4.953125 0.921875 -8.082031 0.921875 -12.15625 C 0.921875 -16.238281 2.085938 -19.378906 4.421875 -21.578125 C 6.765625 -23.785156 10.050781 -24.890625 14.28125 -24.890625 C 18.519531 -24.890625 21.675781 -23.875 23.75 -21.84375 C 25.832031 -19.8125 26.875 -16.710938 26.875 -12.546875 C 26.875 -3.835938 22.539062 0.515625 13.875 0.515625 Z M 13.875 0.515625 "/></g></g></g><g fill="#000000" fill-opacity="1"><g transform="translate(164.810192, 203.993526)"><g><path d="M 0.515625 -24.375 L 12.859375 -24.375 L 12.859375 -19.65625 C 13.984375 -23.144531 16.460938 -24.890625 20.296875 -24.890625 C 24.140625 -24.890625 26.472656 -23.046875 27.296875 -19.359375 C 28.484375 -23.046875 30.988281 -24.890625 34.8125 -24.890625 C 39.832031 -24.890625 42.34375 -22.035156 42.34375 -16.328125 L 42.34375 -0.921875 L 45.21875 -0.921875 L 45.21875 0 L 31.03125 0 L 31.03125 -0.921875 L 32.828125 -0.921875 L 32.828125 -17.5625 C 32.828125 -20.15625 32.601562 -21.675781 32.15625 -22.125 C 31.945312 -22.320312 31.675781 -22.421875 31.34375 -22.421875 C 30.34375 -22.421875 29.46875 -21.753906 28.71875 -20.421875 C 27.96875 -19.097656 27.59375 -17.410156 27.59375 -15.359375 L 27.59375 -0.921875 L 29.4375 -0.921875 L 29.4375 0 L 16.28125 0 L 16.28125 -0.921875 L 18.078125 -0.921875 L 18.078125 -17.5625 C 18.078125 -20.15625 17.851562 -21.675781 17.40625 -22.125 C 17.207031 -22.320312 16.9375 -22.421875 16.59375 -22.421875 C 15.632812 -22.421875 14.769531 -21.695312 14 -20.25 C 13.238281 -18.800781 12.859375 -17.066406 12.859375 -15.046875 L 12.859375 -0.921875 L 14.6875 -0.921875 L 14.6875 0 L 0.515625 0 L 0.515625 -0.921875 L 3.328125 -0.921875 L 3.328125 -23.453125 L 0.515625 -23.453125 Z M 0.515625 -24.375 "/></g></g></g><g fill="#000000" fill-opacity="1"><g transform="translate(205.461, 203.993526)"><g><path d="M 6.71875 0.515625 C 5.238281 0.515625 4.128906 0.0820312 3.390625 -0.78125 C 2.660156 -1.65625 2.296875 -2.71875 2.296875 -3.96875 C 2.296875 -5.21875 2.679688 -6.265625 3.453125 -7.109375 C 4.222656 -7.960938 5.304688 -8.390625 6.703125 -8.390625 C 8.109375 -8.390625 9.21875 -8.03125 10.03125 -7.3125 C 10.851562 -6.601562 11.265625 -5.53125 11.265625 -4.09375 C 11.265625 -2.664062 10.878906 -1.539062 10.109375 -0.71875 C 9.335938 0.101562 8.207031 0.515625 6.71875 0.515625 Z M 6.71875 0.515625 "/></g></g></g><g fill="#000000" fill-opacity="1"><g transform="translate(214.214677, 203.993526)"><g><path d="M 1.6875 0.515625 L 1.6875 -8.65625 L 2.296875 -8.65625 C 3.191406 -5.6875 4.390625 -3.601562 5.890625 -2.40625 C 7.390625 -1.207031 9.265625 -0.609375 11.515625 -0.609375 C 15.003906 -0.609375 16.75 -1.71875 16.75 -3.9375 C 16.75 -4.894531 16.320312 -5.613281 15.46875 -6.09375 C 14.132812 -6.84375 12.425781 -7.421875 10.34375 -7.828125 C 8.019531 -8.441406 6.070312 -9.265625 4.5 -10.296875 C 2.625 -11.523438 1.6875 -13.46875 1.6875 -16.125 C 1.6875 -18.789062 2.503906 -20.914062 4.140625 -22.5 C 5.785156 -24.09375 7.972656 -24.890625 10.703125 -24.890625 C 12.367188 -24.890625 14.09375 -24.492188 15.875 -23.703125 C 16.519531 -23.429688 17.015625 -23.296875 17.359375 -23.296875 C 17.703125 -23.296875 17.992188 -23.414062 18.234375 -23.65625 C 18.472656 -23.894531 18.757812 -24.335938 19.09375 -24.984375 L 19.65625 -24.984375 L 19.65625 -17.15625 L 19.046875 -17.15625 C 17.304688 -21.59375 14.609375 -23.8125 10.953125 -23.8125 C 9.347656 -23.8125 8.15625 -23.53125 7.375 -22.96875 C 6.59375 -22.40625 6.203125 -21.695312 6.203125 -20.84375 C 6.203125 -20.332031 6.316406 -19.929688 6.546875 -19.640625 C 6.785156 -19.347656 6.972656 -19.132812 7.109375 -19 C 7.253906 -18.863281 7.476562 -18.71875 7.78125 -18.5625 C 8.09375 -18.40625 8.347656 -18.285156 8.546875 -18.203125 C 8.753906 -18.117188 9.070312 -18.007812 9.5 -17.875 C 9.925781 -17.738281 10.242188 -17.648438 10.453125 -17.609375 C 12.765625 -17.035156 14.429688 -16.535156 15.453125 -16.109375 C 16.484375 -15.679688 17.457031 -15.160156 18.375 -14.546875 C 20.257812 -13.242188 21.203125 -11.148438 21.203125 -8.265625 C 21.203125 -5.378906 20.347656 -3.191406 18.640625 -1.703125 C 16.929688 -0.222656 14.59375 0.515625 11.625 0.515625 C 9.507812 0.515625 7.460938 0.0195312 5.484375 -0.96875 C 5.066406 -1.238281 4.738281 -1.375 4.5 -1.375 C 3.75 -1.375 3.015625 -0.742188 2.296875 0.515625 Z M 1.6875 0.515625 "/></g></g></g><g fill="#000000" fill-opacity="1"><g transform="translate(231.621025, 203.993526)"><g><path d="M 17.046875 -10.09375 L 17.046875 -14.4375 C 17.046875 -17.75 16.863281 -20.164062 16.5 -21.6875 C 16.144531 -23.207031 15.320312 -23.96875 14.03125 -23.96875 C 13.28125 -23.96875 12.671875 -23.753906 12.203125 -23.328125 C 11.742188 -22.898438 11.414062 -22.191406 11.21875 -21.203125 C 10.90625 -19.660156 10.75 -17.320312 10.75 -14.1875 L 10.75 -10.1875 C 10.75 -6.46875 10.859375 -4.234375 11.078125 -3.484375 C 11.304688 -2.734375 11.539062 -2.117188 11.78125 -1.640625 C 12.15625 -0.816406 12.890625 -0.40625 13.984375 -0.40625 C 15.304688 -0.40625 16.175781 -1.175781 16.59375 -2.71875 C 16.894531 -3.8125 17.046875 -6.269531 17.046875 -10.09375 Z M 13.875 0.515625 C 9.601562 0.515625 6.375 -0.578125 4.1875 -2.765625 C 2.007812 -4.953125 0.921875 -8.082031 0.921875 -12.15625 C 0.921875 -16.238281 2.085938 -19.378906 4.421875 -21.578125 C 6.765625 -23.785156 10.050781 -24.890625 14.28125 -24.890625 C 18.519531 -24.890625 21.675781 -23.875 23.75 -21.84375 C 25.832031 -19.8125 26.875 -16.710938 26.875 -12.546875 C 26.875 -3.835938 22.539062 0.515625 13.875 0.515625 Z M 13.875 0.515625 "/></g></g></g><g fill="#000000" fill-opacity="1"><g transform="translate(254.608084, 203.993526)"><g><path d="M 0.3125 -38.40625 L 12.859375 -38.40625 L 12.859375 -0.921875 L 15.71875 -0.921875 L 15.71875 0 L 0.515625 0 L 0.515625 -0.921875 L 3.328125 -0.921875 L 3.328125 -37.484375 L 0.3125 -37.484375 Z M 0.3125 -38.40625 "/></g></g></g><g fill="#000000" fill-opacity="1"><g transform="translate(265.972913, 203.993526)"><g><path d="M 13.984375 0.515625 C 9.578125 0.515625 6.269531 -0.617188 4.0625 -2.890625 C 1.863281 -5.160156 0.765625 -8.316406 0.765625 -12.359375 C 0.765625 -16.410156 2 -19.507812 4.46875 -21.65625 C 6.945312 -23.8125 10.097656 -24.890625 13.921875 -24.890625 C 21.671875 -24.890625 25.394531 -20.992188 25.09375 -13.203125 L 10.65625 -13.203125 L 10.65625 -11.21875 C 10.65625 -7.875 11.078125 -5.347656 11.921875 -3.640625 C 12.773438 -1.929688 14.265625 -1.078125 16.390625 -1.078125 C 20.347656 -1.078125 22.941406 -3.191406 24.171875 -7.421875 L 25.09375 -7.265625 C 24.4375 -4.804688 23.265625 -2.894531 21.578125 -1.53125 C 19.890625 -0.164062 17.359375 0.515625 13.984375 0.515625 Z M 10.703125 -14.234375 L 15.96875 -14.234375 L 15.96875 -16.75 C 15.96875 -19.507812 15.804688 -21.390625 15.484375 -22.390625 C 15.160156 -23.398438 14.507812 -23.90625 13.53125 -23.90625 C 12.5625 -23.90625 11.847656 -23.367188 11.390625 -22.296875 C 10.929688 -21.222656 10.703125 -19.375 10.703125 -16.75 Z M 10.703125 -14.234375 "/></g></g></g><g fill="#000000" fill-opacity="1"><g transform="translate(287.577595, 203.993526)"><g><path d="M 1.6875 0.515625 L 1.6875 -8.65625 L 2.296875 -8.65625 C 3.191406 -5.6875 4.390625 -3.601562 5.890625 -2.40625 C 7.390625 -1.207031 9.265625 -0.609375 11.515625 -0.609375 C 15.003906 -0.609375 16.75 -1.71875 16.75 -3.9375 C 16.75 -4.894531 16.320312 -5.613281 15.46875 -6.09375 C 14.132812 -6.84375 12.425781 -7.421875 10.34375 -7.828125 C 8.019531 -8.441406 6.070312 -9.265625 4.5 -10.296875 C 2.625 -11.523438 1.6875 -13.46875 1.6875 -16.125 C 1.6875 -18.789062 2.503906 -20.914062 4.140625 -22.5 C 5.785156 -24.09375 7.972656 -24.890625 10.703125 -24.890625 C 12.367188 -24.890625 14.09375 -24.492188 15.875 -23.703125 C 16.519531 -23.429688 17.015625 -23.296875 17.359375 -23.296875 C 17.703125 -23.296875 17.992188 -23.414062 18.234375 -23.65625 C 18.472656 -23.894531 18.757812 -24.335938 19.09375 -24.984375 L 19.65625 -24.984375 L 19.65625 -17.15625 L 19.046875 -17.15625 C 17.304688 -21.59375 14.609375 -23.8125 10.953125 -23.8125 C 9.347656 -23.8125 8.15625 -23.53125 7.375 -22.96875 C 6.59375 -22.40625 6.203125 -21.695312 6.203125 -20.84375 C 6.203125 -20.332031 6.316406 -19.929688 6.546875 -19.640625 C 6.785156 -19.347656 6.972656 -19.132812 7.109375 -19 C 7.253906 -18.863281 7.476562 -18.71875 7.78125 -18.5625 C 8.09375 -18.40625 8.347656 -18.285156 8.546875 -18.203125 C 8.753906 -18.117188 9.070312 -18.007812 9.5 -17.875 C 9.925781 -17.738281 10.242188 -17.648438 10.453125 -17.609375 C 12.765625 -17.035156 14.429688 -16.535156 15.453125 -16.109375 C 16.484375 -15.679688 17.457031 -15.160156 18.375 -14.546875 C 20.257812 -13.242188 21.203125 -11.148438 21.203125 -8.265625 C 21.203125 -5.378906 20.347656 -3.191406 18.640625 -1.703125 C 16.929688 -0.222656 14.59375 0.515625 11.625 0.515625 C 9.507812 0.515625 7.460938 0.0195312 5.484375 -0.96875 C 5.066406 -1.238281 4.738281 -1.375 4.5 -1.375 C 3.75 -1.375 3.015625 -0.742188 2.296875 0.515625 Z M 1.6875 0.515625 "/></g></g></g></svg>